<?xml version="1.0" encoding="UTF-8" standalone="no"?>
<svg
   xmlns:dc="http://purl.org/dc/elements/1.1/"
   xmlns:cc="http://creativecommons.org/ns#"
   xmlns:rdf="http://www.w3.org/1999/02/22-rdf-syntax-ns#"
   xmlns:svg="http://www.w3.org/2000/svg"
   xmlns="http://www.w3.org/2000/svg"
   xmlns:sodipodi="http://sodipodi.sourceforge.net/DTD/sodipodi-0.dtd"
   xmlns:inkscape="http://www.inkscape.org/namespaces/inkscape"
   version="1.1"
   viewBox="0 0 12 12"
   enable-background="new 0 0 129 129"
   id="svg2"
   inkscape:version="0.91 r13725"
   sodipodi:docname="HeadPhone_Icon.svg"
   width="12"
   height="12">
  <metadata
     id="metadata12">
    <rdf:RDF>
      <cc:Work
         rdf:about="">
        <dc:format>image/svg+xml</dc:format>
        <dc:type
           rdf:resource="http://purl.org/dc/dcmitype/StillImage" />
        <dc:title />
      </cc:Work>
    </rdf:RDF>
  </metadata>
  <defs
     id="defs10" />
  <sodipodi:namedview
     pagecolor="#ffffff"
     bordercolor="#666666"
     borderopacity="1"
     objecttolerance="10"
     gridtolerance="10"
     guidetolerance="10"
     inkscape:pageopacity="0"
     inkscape:pageshadow="2"
     inkscape:window-width="1920"
     inkscape:window-height="1029"
     id="namedview8"
     showgrid="false"
     inkscape:zoom="7.3178294"
     inkscape:cx="-1.2617092"
     inkscape:cy="32.087141"
     inkscape:window-x="0"
     inkscape:window-y="0"
     inkscape:window-maximized="1"
     inkscape:current-layer="svg2" />
  <path
     inkscape:connector-curvature="0"
     id="path6"
     d="M 5.989655,0 C 2.6896552,0 0,2.7013 0,6.01558 l 0,0.47793 0,0.93506 0,4.14546 C 0,11.81299 0.1862069,12 0.4241379,12 l 2.1827587,0 c 0.237931,0 0.4241379,-0.18701 0.4241379,-0.42597 l 0,-5.08052 c 0,-0.23896 -0.1862069,-0.42598 -0.4241379,-0.42598 l -1.7586207,0 0,-0.0519 C 0.8482759,3.16888 3.1551724,0.84161 6,0.84161 c 2.844828,0 5.151724,2.31688 5.151724,5.17402 l 0,0.0519 -1.758621,0 c -0.237931,0 -0.424137,0.18702 -0.424137,0.42598 l 0,5.08052 C 8.968966,11.81299 9.155172,12 9.393103,12 l 2.182759,0 C 11.813793,12 12,11.81299 12,11.57403 L 12,7.42857 12,6.49351 12,6.01558 C 11.97931,2.7013 9.289655,0 5.989655,0 Z m -3.8068964,6.91948 0,4.23896 -1.3448276,0 0,-3.72987 0,-0.51948 1.3448276,0 z m 8.9586204,0.51948 0,3.71948 -1.334482,0 0,-4.22857 1.334482,0 0,0.50909 z"
     style="stroke:none;stroke-opacity:1;fill:#ffffff;fill-opacity:1;opacity:1" />
</svg>
